<?xml version="1.0" encoding="iso-8859-1"?>
<!-- Generator: Adobe Illustrator 19.0.0, SVG Export Plug-In . SVG Version: 6.00 Build 0)  -->
<svg version="1.1" id="Layer_1" xmlns="http://www.w3.org/2000/svg" xmlns:xlink="http://www.w3.org/1999/xlink" x="0px" y="0px"
	 viewBox="0 0 485 485" style="enable-background:new 0 0 485 485;" xml:space="preserve">
<path d="M0,0v485h485V0H0z M455,151.667H333.333V30H455V151.667z M181.667,303.333V181.667h121.667v121.666H181.667z
	 M303.333,333.333V455H181.667V333.333H303.333z M151.667,303.333H30V181.667h121.667V303.333z M181.667,151.667V30h121.667v121.667
	H181.667z M333.333,181.667H455v121.666H333.333V181.667z M151.667,30v121.667H30V30H151.667z M30,333.333h121.667V455H30V333.333z
	 M333.333,455V333.333H455V455H333.333z"/>
<g>
</g>
<g>
</g>
<g>
</g>
<g>
</g>
<g>
</g>
<g>
</g>
<g>
</g>
<g>
</g>
<g>
</g>
<g>
</g>
<g>
</g>
<g>
</g>
<g>
</g>
<g>
</g>
<g>
</g>
</svg>
