<?xml version="1.0" encoding="UTF-8" standalone="no"?> <svg id="Layer_1" data-name="Layer 1" xmlns="http://www.w3.org/2000/svg" viewBox="0 0 24 24"><title>social, ig, instagram, app, insta</title><path d="M21,4H15.68l5.66-2.06A1,1,0,1,0,20.66.06L10.26,3.84,6.71.29A1,1,0,0,0,5.29,1.71L7.59,4H3A3,3,0,0,0,0,7V21a3,3,0,0,0,3,3H21a3,3,0,0,0,3-3V7A3,3,0,0,0,21,4Zm1,17a1,1,0,0,1-1,1H3a1,1,0,0,1-1-1V7A1,1,0,0,1,3,6H21a1,1,0,0,1,1,1Z"/><path d="M19,15H17l-2.34-4.46a1,1,0,0,0-.77-.53,1,1,0,0,0-.87.33L9.54,14.29l-1-1.79a1,1,0,0,0-.77-.5,1,1,0,0,0-.85.34l-2.62,3A1,1,0,0,0,5,17a1,1,0,0,0,.75-.34l1.71-1.95,1,1.79a1,1,0,0,0,.77.5,1,1,0,0,0,.85-.34l3.41-3.9,2,3.7a1,1,0,0,0,.89.54H19a1,1,0,0,0,0-2Z"/></svg>